<svg xmlns="http://www.w3.org/2000/svg" viewBox="0 0 512 512" width="512" height="512" aria-label="gemini-i18n-translator logo">
  <!-- gemini-i18n-translator · Prism · 2026 -->
  <defs>
    <linearGradient id="prism" x1="0.2" y1="0" x2="0.9" y2="1">
      <stop offset="0%" stop-color="#818CF8"/>
      <stop offset="50%" stop-color="#6D28D9"/>
      <stop offset="100%" stop-color="#4C1D95"/>
    </linearGradient>
    <linearGradient id="beam-in" x1="0" y1="0" x2="1" y2="0">
      <stop offset="0%" stop-color="#CBD5E1" stop-opacity="0.2"/>
      <stop offset="100%" stop-color="#CBD5E1" stop-opacity="0.9"/>
    </linearGradient>
    <linearGradient id="b1" x1="308" y1="249" x2="432" y2="108" gradientUnits="userSpaceOnUse">
      <stop offset="0%" stop-color="#8B5CF6"/><stop offset="100%" stop-color="#8B5CF6" stop-opacity="0.3"/>
    </linearGradient>
    <linearGradient id="b2" x1="308" y1="252" x2="432" y2="182" gradientUnits="userSpaceOnUse">
      <stop offset="0%" stop-color="#A855F7"/><stop offset="100%" stop-color="#A855F7" stop-opacity="0.3"/>
    </linearGradient>
    <linearGradient id="b3" x1="308" y1="256" x2="432" y2="256" gradientUnits="userSpaceOnUse">
      <stop offset="0%" stop-color="#6366F1"/><stop offset="100%" stop-color="#6366F1" stop-opacity="0.3"/>
    </linearGradient>
    <linearGradient id="b4" x1="308" y1="260" x2="432" y2="330" gradientUnits="userSpaceOnUse">
      <stop offset="0%" stop-color="#3B82F6"/><stop offset="100%" stop-color="#3B82F6" stop-opacity="0.3"/>
    </linearGradient>
    <linearGradient id="b5" x1="308" y1="263" x2="432" y2="404" gradientUnits="userSpaceOnUse">
      <stop offset="0%" stop-color="#06B6D4"/><stop offset="100%" stop-color="#06B6D4" stop-opacity="0.3"/>
    </linearGradient>
  </defs>

  <!-- Input beam (enters from left edge) -->
  <line x1="-16" y1="256" x2="142" y2="256" stroke="url(#beam-in)" stroke-width="14" stroke-linecap="round"/>

  <!-- Prism body -->
  <path d="M142,118 L142,394 L314,256 Z" fill="url(#prism)"/>
  <path d="M142,118 L228,256 L142,394" fill="none" stroke="#A78BFA" stroke-width="1.5" opacity="0.25"/>
  <path d="M142,118 L142,394 L228,256 Z" fill="#fff" opacity="0.06"/>

  <!-- Output beams (curved wedges, gradient fade) -->
  <path d="M308,248 Q370,164 432,80 L432,136 Q370,194 308,251 Z" fill="url(#b1)"/>
  <path d="M308,251 Q370,203 432,154 L432,210 Q370,232 308,254 Z" fill="url(#b2)"/>
  <path d="M308,254 Q370,241 432,228 L432,284 Q370,271 308,258 Z" fill="url(#b3)"/>
  <path d="M308,258 Q370,280 432,302 L432,358 Q370,310 308,261 Z" fill="url(#b4)"/>
  <path d="M308,261 Q370,319 432,376 L432,432 Q370,348 308,264 Z" fill="url(#b5)"/>
</svg>
